PathFileType	4	(X/Y/Z)	Walk5.trc
DataRate	CameraRate	NumFrames	NumMarkers	Units	OrigDataRate	OrigDataStartFrame	OrigNumFrames
200.000000	200.000000	5	61	mm	200.000000	767	813
Frame#	Times		RCAR		LToe		LMT5		LTB1		RWRU		LLFC		RWRR		RFHD		RACR1		RFA1		LMT1		LUA1		LFA1		LTH2		LElbow		STRN		LACR1		LCAR		LASI		RTH3		RTB2		LWRU		RPSI		RLFC		LFHD		LWRR		C7		LPSI		RToe		RMT1		RMT5		RMFC		CLAV		RTB3		RTB1		LMFC		RTB4		LTH1		LTH3		RTH2		RCAL		RASI		RLMAL		LTB2		RMMAL		LTB4		LBHD		RBHD		RTH4		RBack		LTB3		RUA1		LMMAL		LTH4		RElbow		RTH1		LCAL		T10		LElbowM		LLMAL		RElbowM
			X1	Y1	Z1	X2	Y2	Z2	X3	Y3	Z3	X4	Y4	Z4	X5	Y5	Z5	X6	Y6	Z6	X7	Y7	Z7	X8	Y8	Z8	X9	Y9	Z9	X10	Y10	Z10	X11	Y11	Z11	X12	Y12	Z12	X13	Y13	Z13	X14	Y14	Z14	X15	Y15	Z15	X16	Y16	Z16	X17	Y17	Z17	X18	Y18	Z18	X19	Y19	Z19	X20	Y20	Z20	X21	Y21	Z21	X22	Y22	Z22	X23	Y23	Z23	X24	Y24	Z24	X25	Y25	Z25	X26	Y26	Z26	X27	Y27	Z27	X28	Y28	Z28	X29	Y29	Z29	X30	Y30	Z30	X31	Y31	Z31	X32	Y32	Z32	X33	Y33	Z33	X34	Y34	Z34	X35	Y35	Z35	X36	Y36	Z36	X37	Y37	Z37	X38	Y38	Z38	X39	Y39	Z39	X40	Y40	Z40	X41	Y41	Z41	X42	Y42	Z42	X43	Y43	Z43	X44	Y44	Z44	X45	Y45	Z45	X46	Y46	Z46	X47	Y47	Z47	X48	Y48	Z48	X49	Y49	Z49	X50	Y50	Z50	X51	Y51	Z51	X52	Y52	Z52	X53	Y53	Z53	X54	Y54	Z54	X55	Y55	Z55	X56	Y56	Z56	X57	Y57	Z57	X58	Y58	Z58	X59	Y59	Z59	X60	Y60	Z60	X61	Y61	Z61

767	3.835	1109.2	879.15	395.45	1184.5	32.507	-17.705	1083.3	27.875	-92.852	1018.3	368.49	-21.686	1045.4	911.35	385.75	985.26	510.23	-132.93	1117.4	922.79	335.58	1179.7	1710.4	112.13	1031.1	1517	217.82	1054.4	1056.2	358.46	1128.8	46.969	-2.2729	1035.9	1365.5	-237.12	1106.4	1077.1	-293.39	1072.4	747.05	-160.33	1007.4	1197.8	-292.01	1155.9	1311.9	29.91	1037.5	1547.8	-152.16	1172.5	924.19	-304.94	1089.6	1049.8	-131.02	1068	657.01	231.66	1026.4	325.24	201.89	1094.3	945.05	-305.64	853.52	1082.2	67.219	1106.4	541.15	230.48	1188.6	1716.7	6.6001	1166.5	960.39	-247.61	928.22	1576.1	37.743	860.28	1094.3	-41.6	1028.3	48.784	147.76	991.93	82.403	129.05	937.69	80.729	210.74	1110.8	526.64	84.975	1095	1485.5	21.877	978.95	260.74	131.9	1089.3	397.05	142.36	983.37	510.41	8.7254	1035	325.27	138.67	1015.5	830.19	-186.95	1015.4	658.34	-155.81	1090.5	759.31	241.04	798.14	185.46	123.48	1065.6	1054.1	182.29	862.87	185.13	172.16	1035	277.68	-72.583	910.61	192.67	83.175	1011.6	284.31	-14.643	1022.4	1713	-24.628	1007.9	1708.1	116.05	1034.5	734.54	235.59	865.8	1456.6	152.14	1008.2	198.92	-8.796	1007.6	1338.5	291.86	986.55	98.398	35.461	1015.8	744.35	-172.69	962.7	1180.3	337.76	1001.8	816.59	237.14	902.04	45.609	-24.13	875.76	1220.7	12.905	971.03	1166.7	-210.09	967.56	66.197	-63.659	943.06	1151	246.43
768	3.84	1112	878.98	395.83	1184.5	32.502	-17.667	1083.3	27.898	-92.882	1020	368.11	-21.458	1048.3	911.19	385.87	987.65	510.21	-132.73	1120.5	922.59	335.97	1184.4	1710.2	112.39	1035.5	1516.8	217.93	1057.6	1056.1	358.64	1128.9	46.982	-2.2437	1041	1365.8	-237.2	1112.5	1077.8	-293.32	1075.6	746.59	-160.11	1012.9	1198.1	-292.22	1160.5	1311.8	29.847	1042.3	1548.1	-152.05	1179.4	925.19	-304.6	1093.9	1049.8	-131.12	1075	657.9	232	1038.1	324.24	202.04	1101.1	945.68	-305.38	858.11	1082.3	67.32	1114.1	541.88	230.25	1193.4	1716.5	6.8698	1173.1	961.44	-247.32	932.87	1576.1	37.762	864.82	1094.3	-41.507	1046.5	48.225	148.83	1009.3	80.704	129.92	955	78.026	211.37	1117.8	527.4	84.967	1099.6	1485.5	21.931	992.25	258.55	132.13	1099.5	396.95	143.21	985.97	510.42	8.9164	1046.7	324.48	138.99	1019.4	829.99	-186.76	1018.4	658.19	-155.62	1097.1	760.39	241.26	813.09	179.06	123.45	1070.5	1054.3	182.29	877.69	180.41	172.31	1036.2	277.32	-72.487	925.56	189	83.424	1012.8	284.05	-14.487	1027.2	1713	-24.416	1012.7	1708	116.26	1041.1	735.24	236.05	870.26	1456.6	151.98	1008.9	198.69	-8.6842	1011.4	1338.4	291.91	986.76	98.354	35.524	1019.3	744.25	-172.55	966.09	1180.3	337.69	1007.8	817.11	237.58	902.01	45.67	-24.093	880.38	1220.7	12.827	976.68	1166.8	-210.3	967.63	66.253	-63.623	946.65	1151.1	246.31
769	3.845	1114.8	878.77	396.2	1184.6	32.496	-17.629	1083.3	27.917	-92.908	1021.7	367.74	-21.249	1051.2	911	386	990.04	510.18	-132.53	1123.6	922.35	336.35	1189.2	1710	112.65	1039.9	1516.6	218.04	1060.8	1055.9	358.81	1128.9	46.992	-2.2163	1046.2	1366.1	-237.28	1118.6	1078.5	-293.22	1078.9	746.11	-159.89	1018.5	1198.3	-292.43	1165	1311.8	29.794	1047.2	1548.2	-151.93	1186.2	926.14	-304.22	1098.3	1049.8	-131.19	1082	658.74	232.37	1049.8	323.21	202.21	1107.8	946.28	-305.11	862.7	1082.3	67.426	1121.7	542.54	230.05	1198.1	1716.4	7.1447	1179.7	962.46	-246.99	937.51	1576.1	37.795	869.35	1094.3	-41.408	1064.8	47.75	149.94	1026.9	79.076	130.83	972.42	75.378	212.03	1124.7	528.07	84.988	1104.3	1485.4	21.995	1005.6	256.36	132.4	1109.6	396.82	144.03	988.57	510.42	9.11	1058.3	323.71	139.29	1023.2	829.77	-186.57	1021.5	658.02	-155.44	1103.6	761.43	241.51	828.23	172.62	123.43	1075.4	1054.6	182.31	892.66	175.66	172.48	1037.4	276.97	-72.379	940.66	185.33	83.687	1014	283.78	-14.323	1032	1713.1	-24.192	1017.4	1708	116.48	1047.5	735.9	236.54	874.71	1456.6	151.83	1009.6	198.45	-8.5571	1015.2	1338.3	291.97	986.96	98.327	35.595	1022.8	744.12	-172.41	969.51	1180.2	337.61	1013.9	817.6	238.05	902	45.719	-24.041	885	1220.7	12.761	982.3	1166.9	-210.51	967.71	66.311	-63.589	950.24	1151.1	246.21
770	3.85	1117.6	878.51	396.54	1184.7	32.488	-17.594	1083.3	27.929	-92.93	1023.4	367.39	-21.056	1054.1	910.78	386.16	992.42	510.14	-132.33	1126.7	922.06	336.71	1193.9	1709.8	112.92	1044.3	1516.4	218.17	1064	1055.7	358.98	1129	47.001	-2.1907	1051.3	1366.4	-237.34	1124.7	1079.1	-293.1	1082.1	745.62	-159.66	1024.2	1198.5	-292.62	1169.6	1311.7	29.753	1052	1548.3	-151.8	1193	927.04	-303.8	1102.7	1049.7	-131.23	1088.9	659.53	232.75	1061.6	322.15	202.42	1114.5	946.82	-304.8	867.31	1082.3	67.538	1129.2	543.12	229.89	1202.9	1716.2	7.4248	1186.3	963.42	-246.64	942.15	1576.1	37.841	873.9	1094.2	-41.301	1083.1	47.374	151.08	1044.4	77.536	131.78	989.92	72.803	212.72	1131.5	528.65	85.038	1109	1485.3	22.07	1019	254.18	132.69	1119.6	396.68	144.8	991.16	510.41	9.3039	1070	322.96	139.56	1027.1	829.55	-186.39	1024.5	657.84	-155.27	1110	762.4	241.8	843.58	166.15	123.44	1080.3	1054.8	182.38	907.76	170.91	172.68	1038.6	276.61	-72.26	955.91	181.66	83.963	1015.2	283.5	-14.154	1036.8	1713	-23.958	1022.1	1707.9	116.71	1053.9	736.51	237.04	879.16	1456.6	151.69	1010.3	198.2	-8.4156	1019.1	1338.1	292.03	987.14	98.314	35.674	1026.3	743.97	-172.26	972.96	1180.1	337.55	1019.8	818.05	238.55	902	45.756	-23.975	889.64	1220.7	12.707	987.89	1167	-210.74	967.79	66.372	-63.557	953.84	1151	246.12
771	3.855	1120.5	878.21	396.88	1184.7	32.478	-17.562	1083.3	27.936	-92.946	1025.1	367.05	-20.878	1057.1	910.52	386.32	994.8	510.09	-132.12	1129.8	921.73	337.06	1198.6	1709.5	113.19	1048.7	1516.2	218.31	1067.2	1055.5	359.15	1129	47.007	-2.1669	1056.4	1366.6	-237.39	1130.8	1079.6	-292.96	1085.4	745.12	-159.41	1029.8	1198.6	-292.82	1174.2	1311.6	29.725	1056.8	1548.4	-151.66	1199.8	927.88	-303.34	1107.2	1049.5	-131.24	1095.7	660.27	233.16	1073.3	321.07	202.66	1121.2	947.33	-304.48	871.93	1082.2	67.657	1136.5	543.63	229.76	1207.6	1716	7.7102	1192.8	964.35	-246.25	946.79	1576	37.901	878.45	1094.2	-41.185	1101.4	47.11	152.23	1062.1	76.099	132.76	1007.5	70.317	213.44	1138.1	529.13	85.114	1113.6	1485.2	22.159	1032.4	252.01	133.02	1129.6	396.53	145.52	993.73	510.38	9.4971	1081.6	322.22	139.8	1030.9	829.31	-186.21	1027.6	657.65	-155.09	1116.3	763.31	242.12	859.11	159.68	123.47	1085.2	1054.9	182.47	923	166.17	172.9	1039.8	276.25	-72.131	971.29	178.03	84.252	1016.5	283.21	-13.982	1041.5	1713	-23.713	1026.8	1707.8	116.95	1060.3	737.08	237.56	883.62	1456.5	151.57	1010.9	197.94	-8.2614	1022.9	1337.9	292.1	987.3	98.312	35.761	1029.8	743.79	-172.11	976.43	1180	337.49	1025.8	818.47	239.07	902.02	45.78	-23.896	894.29	1220.7	12.667	993.45	1167.1	-210.96	967.88	66.436	-63.526	957.45	1150.9	246.05
